<?xml version="1.0" standalone="no"?><!DOCTYPE svg PUBLIC "-//W3C//DTD SVG 1.1//EN" "http://www.w3.org/Graphics/SVG/1.1/DTD/svg11.dtd"><svg t="1546005659159" class="icon" style="" viewBox="0 0 1024 1024" version="1.1" xmlns="http://www.w3.org/2000/svg" p-id="1895" xmlns:xlink="http://www.w3.org/1999/xlink" width="200" height="200"><defs><style type="text/css"></style></defs><path d="M144.36 817.152a381.336 94.504 0 1 0 762.672 0 381.336 94.504 0 1 0-762.672 0Z" fill="#B8CBCD" p-id="1896"></path><path d="M104.76 448c8.424 222.32 191.208 400 415.6 400 224.368 0 407.168-177.68 415.592-400H104.76z" fill="#FFBAB0" p-id="1897"></path><path d="M520.36 872a438.448 438.448 0 0 1-439.584-423.096A24.024 24.024 0 0 1 104.76 424h831.184a24 24 0 0 1 23.984 24.904A438.424 438.424 0 0 1 520.36 872zM130.464 472c19.984 199.312 186.688 352 389.896 352 203.208 0 369.912-152.688 389.888-352H130.464z" fill="#783741" p-id="1898"></path><path d="M104.76 448c8.424 222.32 191.208 400 415.6 400 224.368 0 407.168-177.68 415.592-400" fill="#FFBAB0" p-id="1899"></path><path d="M520.36 864a430.464 430.464 0 0 1-431.584-415.392 16 16 0 0 1 15.384-16.6 16.072 16.072 0 0 1 16.592 15.384A398.56 398.56 0 0 0 520.36 832a398.56 398.56 0 0 0 399.6-384.608 15.816 15.816 0 0 1 16.6-15.384 16.008 16.008 0 0 1 15.384 16.6A430.472 430.472 0 0 1 520.36 864z" fill="#783741" p-id="1900"></path><path d="M520.36 824c-258.768 0-431.312-140.952-439.584-359.096a24 24 0 0 1 23.072-24.888c13.376-0.272 24.392 9.832 24.896 23.08C137.488 693.8 336.768 776 520.36 776c183.584 0 382.872-82.2 391.608-312.904 0.504-13.24 11.744-23.344 24.888-23.08a24.008 24.008 0 0 1 23.08 24.888C951.672 683.048 779.128 824 520.36 824z" fill="#783741" p-id="1901"></path><path d="M420.272 436.088l93.28-82.232c-226.464 0.8-408.912 39.864-408.912 87.96 0 41.128 133.4 75.656 313.656 85.304-14.752-30.632-18.712-70.344 1.976-91.032z" fill="#FFBAB0" p-id="1902"></path><path d="M418.296 543.12c-0.288 0-0.576-0.008-0.856-0.024-77.136-4.128-328.8-23.632-328.8-101.28 0-81.04 277.904-103.44 424.848-103.96h0.056a16 16 0 0 1 10.584 28L431.272 447.72c-14.664 15.168-10.416 47.84 1.432 72.464A16.016 16.016 0 0 1 431.608 536c-2.976 4.456-7.984 7.12-13.312 7.12z m52.216-172.656c-226.8 5.688-349.872 48.792-349.872 71.352 0 17.304 83.088 55 274.096 67.848-8.36-30.352-6.8-63.864 14.224-84.888 0.232-0.232 0.48-0.472 0.728-0.688l60.824-53.624z" fill="#783741" p-id="1903"></path><path d="M936.64 441.816c0-31.136-76.52-58.48-191.856-74.12L619.872 527.272c181.816-9.416 316.768-44.096 316.768-85.456z" fill="#FFBAB0" p-id="1904"></path><path d="M619.872 543.272a16.008 16.008 0 0 1-12.6-25.856L732.176 357.84a15.872 15.872 0 0 1 14.752-5.992c93.84 12.72 205.712 38.664 205.712 89.968 0 78.176-254.072 97.408-331.936 101.44l-0.832 0.016z m131.824-158.456L654.4 509.12c185.408-13.32 266.232-50.168 266.232-67.304 0.008-10.888-41.544-38.712-168.936-57z" fill="#783741" p-id="1905"></path><path d="M810.696 181.648c-28-28.008-73.808-28.008-101.808 0L513.544 353.848 420.264 436.08c-20.688 20.688-16.728 60.4-1.976 91.032 32.744 1.76 67.016 2.696 102.344 2.696 34.216 0 67.416-0.888 99.232-2.536l124.904-159.576 65.92-84.224c28.024-28 28.024-73.824 0.008-101.824z" fill="#FFFFFF" p-id="1906"></path><path d="M520.64 545.816c-34.88 0-69.608-0.912-103.208-2.72a15.976 15.976 0 0 1-13.552-9.04c-16.856-35.008-21.832-82.376 5.08-109.28 0.232-0.232 0.48-0.472 0.728-0.688l288.264-254.128a87.376 87.376 0 0 1 61.84-25.32c23.56 0 45.656 9.128 62.216 25.696a87.36 87.36 0 0 1 25.704 62.224c0 23.216-8.864 45.016-24.984 61.504L632.472 537.136a16.008 16.008 0 0 1-11.776 6.12c-32.784 1.696-66.448 2.56-100.056 2.56z m-91.608-34.176c59.552 2.872 122.544 2.888 182.744 0.016l186.32-238.048a17.2 17.2 0 0 1 1.288-1.464 55.536 55.536 0 0 0 16.328-39.584 55.544 55.544 0 0 0-16.328-39.592 55.584 55.584 0 0 0-39.592-16.328 55.6 55.6 0 0 0-39.592 16.32c-0.232 0.232-0.48 0.472-0.736 0.688L431.272 447.72c-13.016 13.464-11.128 40.744-2.24 63.92z" fill="#783741" p-id="1907"></path><path d="M873.512 309.848L686.84 123.184 736.92 72l186.688 186.672z" fill="#FFBAB0" p-id="1908"></path><path d="M873.512 325.848a16 16 0 0 1-11.312-4.688L675.528 134.496a16 16 0 0 1-0.128-22.504l50.08-51.176A16.016 16.016 0 0 1 736.832 56a15.768 15.768 0 0 1 11.4 4.688l186.688 186.672a16 16 0 0 1 0.128 22.504l-50.096 51.184a16 16 0 0 1-11.352 4.8h-0.088z m-164.16-202.792l164.04 164.048 27.712-28.312L737.04 94.752l-27.688 28.304z" fill="#783741" p-id="1909"></path><path d="M520.64 664m-96 0a96 96 0 1 0 192 0 96 96 0 1 0-192 0Z" fill="#FFFFFF" p-id="1910"></path><path d="M536.64 688c0 13.2-7.2 24-16 24s-16-10.8-16-24v-48c0-13.2 7.2-24 16-24s16 10.8 16 24v48z" fill="#783741" p-id="1911"></path><path d="M496.64 680c-13.2 0-24-7.2-24-16s10.8-16 24-16h48c13.2 0 24 7.2 24 16s-10.8 16-24 16h-48zM648.648 352c-4.32 0-8.632-1.744-11.792-5.168l-51.416-55.912a16 16 0 0 1 23.56-21.656l51.416 55.912A16 16 0 0 1 648.648 352zM576.64 416a15.968 15.968 0 0 1-11.472-4.84l-53.304-54.776a16 16 0 1 1 22.928-22.312l53.312 54.776A15.992 15.992 0 0 1 576.64 416z" fill="#783741" p-id="1912"></path><path d="M520.352 872c-155.128 0-295.72-79.304-376.28-212.184-39.184-55.072-60.48-120.632-63.296-194.904-0.016-0.76-0.144-21-0.144-23.096 0-102.104 341.704-111.128 412.248-111.896l193.84-161.056-23.328-23.328a23.984 23.984 0 0 1 0-33.936l56.56-56.568c9-9 24.936-9 33.936 0l186.688 186.672a23.984 23.984 0 0 1 0 33.936l-56.576 56.568a23.968 23.968 0 0 1-33.936 0l-23.168-23.168-28.464 41.392c109.056 18.904 162.208 48.92 162.208 91.384 0 2.16-0.704 23.008-0.704 23.008-2.824 74.352-24.112 139.92-63.296 194.992C816.072 792.696 675.48 872 520.352 872zM128.64 442.4l0.128 21.456c2.448 64.296 20.92 121.336 54.888 168.792 0.36 0.504 0.712 1.032 1.032 1.568C256.4 753.048 381.88 824 520.352 824c138.472 0 263.952-70.952 335.672-189.792 0.32-0.536 0.664-1.064 1.032-1.568 33.968-47.456 52.44-104.496 54.904-169.544 0 0 0.648-18.704 0.672-21.368-2.04-7.28-35.688-32.888-158.888-49.6a24.016 24.016 0 0 1-16.552-37.384l58-84.336c0.832-1.2 1.768-2.336 2.808-3.368 1.656-1.656 2.064-2.32 4.264-6.008l0.856-1.448a24 24 0 0 1 37.552-4.64l26.344 26.344 22.632-22.624-152.728-152.72-22.624 22.624 25.408 25.408a24 24 0 0 1-4.632 37.552 47.312 47.312 0 0 0-9.208 7.088 22.32 22.32 0 0 1-1.632 1.496L516.976 372.312a24.032 24.032 0 0 1-15.256 5.536c-231.568 0.824-363.44 41.656-373.08 64.552z" fill="#783741" p-id="1913"></path></svg>