<?xml version="1.0" standalone="no"?><!DOCTYPE svg PUBLIC "-//W3C//DTD SVG 1.1//EN" "http://www.w3.org/Graphics/SVG/1.1/DTD/svg11.dtd"><svg t="1546009099575" class="icon" style="" viewBox="0 0 1024 1024" version="1.1" xmlns="http://www.w3.org/2000/svg" p-id="2015" xmlns:xlink="http://www.w3.org/1999/xlink" width="200" height="200"><defs><style type="text/css"></style></defs><path d="M529.408 54.272c-11.264-10.752-30.208-10.752-41.472 0-14.848 14.336-369.152 353.28-369.152 552.448 0 204.8 175.104 371.2 390.144 371.2s390.144-166.4 390.144-371.2c-0.512-199.168-354.816-538.112-369.664-552.448z m-20.992 867.84c-182.784 0-331.264-141.312-331.264-315.392 0-136.704 222.208-385.024 331.264-492.544 109.056 108.032 331.264 355.84 331.264 492.544 0 174.08-148.48 315.392-331.264 315.392z m226.304-329.728c-16.384-2.048-30.72 9.216-32.768 24.576-10.752 88.576-75.264 161.792-165.376 187.392-15.872 4.608-24.576 19.968-19.968 34.816 3.584 12.288 15.36 19.968 28.16 19.968 2.56 0 5.632-0.512 8.192-1.024 112.64-31.744 193.536-123.904 206.848-234.496 2.56-15.872-9.216-29.696-25.088-31.232z" fill="" p-id="2016"></path></svg>