<?xml version="1.0" standalone="no"?><!DOCTYPE svg PUBLIC "-//W3C//DTD SVG 1.1//EN" "http://www.w3.org/Graphics/SVG/1.1/DTD/svg11.dtd"><svg t="1546160986128" class="icon" style="" viewBox="0 0 1024 1024" version="1.1" xmlns="http://www.w3.org/2000/svg" p-id="20701" xmlns:xlink="http://www.w3.org/1999/xlink" width="32" height="32"><defs><style type="text/css"></style></defs><path d="M734.86 361.312l-246.111 246.11-114.25-114.275c-10.045-10.045-26.367-10.045-36.412 0-10.046 10.046-10.046 26.368 0 36.414l129.33 129.33c0.87 1.24 1.398 2.664 2.506 3.771 5.194 5.194 12.023 7.594 18.826 7.41 6.802 0.157 13.658-2.216 18.852-7.41 1.108-1.107 1.635-2.531 2.505-3.77l261.167-261.167c10.046-10.046 10.046-26.368 0-36.413-10.072-10.046-26.367-10.046-36.413 0zM554.667 90.125C321.66 90.125 132.792 278.993 132.792 512S321.66 933.875 554.667 933.875c232.98 0 421.875-188.868 421.875-421.875S787.674 90.125 554.667 90.125z m0 791.016c-203.871 0-369.141-165.27-369.141-369.141s165.27-369.14 369.14-369.14c203.872 0 369.141 165.269 369.141 369.14 0 203.871-165.27 369.14-369.14 369.14z" p-id="20702"></path></svg>